# File created by Blade
# Date/Time:  Tue Apr 07 21:12:45 2015
#---------------------------------------------------------
:version 1.10
:name HOM
:units
  mass 1.0
  length 1.000000
  angle deg
:documentation
     Acclaim Skeleton File
:root
   axis xyz
   order TX TY TZ RX RY RZ
   position 0.000000 0.000000 0.000000
   orientation 0 0 0
:bonedata
   begin
      id 1
      name Spine_dum
      direction 0.000000 1.000000 0.000000
      length 4.885285
      axis 0.0 0.0 0.0 xyz
   end
   begin
      id 2
      name LeftUpLeg_dum
      direction 1.000000 0.000000 0.000000
      length 2.672193
      axis 0.0 0.0 0.0 xyz
   end
   begin
      id 3
      name RightUpLeg_dum
      direction -1.000000 0.000000 0.000000
      length 2.672193
      axis 0.0 0.0 0.0 xyz
   end
   begin
      id 4
      name Spine
      direction 0.000000 1.000000 0.000000
      length 0.000000
      axis 0.0 0.0 0.0 xyz
      dof rx ry rz
   end
   begin
      id 5
      name Spine_dum1
      direction 0.000000 1.000000 0.000000
      length 16.494159
      axis 0.0 0.0 0.0 xyz
   end
   begin
      id 6
      name Spine_dum2
      direction 0.000000 1.000000 0.000000
      length 10.663448
      axis 0.0 0.0 0.0 xyz
   end
   begin
      id 7
      name Spine_dum3
      direction 0.000000 1.000000 0.000000
      length 10.663448
      axis 0.0 0.0 0.0 xyz
   end
   begin
      id 8
      name Head
      direction 0.000000 1.000000 0.000000
      length 4.527550
      axis 0.0 0.0 0.0 xyz
      dof rx ry rz
   end
   begin
      id 9
      name LeftShoulder
      direction 1.000000 0.000000 0.000000
      length 7.531907
      axis 0.0 0.0 -90.0 xyz
      dof rx ry rz
   end
   begin
      id 10
      name LeftArm
      direction 1.000000 0.000000 0.000000
      length 10.229199
      axis 0.0 0.0 -90.0 xyz
      dof rx ry rz
   end
   begin
      id 11
      name LeftForeArm
      direction 1.000000 0.000000 0.000000
      length 8.673495
      axis 0.0 0.0 -90.0 xyz
      dof ry rz rx
   end
   begin
      id 12
      name LeftHand
      direction 0.000000 0.000000 0.000000
      length 0.000000
      axis 0.0 0.0 -90.0 xyz
      dof rx ry rz
   end
   begin
      id 13
      name LeftHand_dum1
      direction 0.000000 0.000000 0.000000
      length 0.000000
      axis 0.0 0.0 -90.0 xyz
   end
   begin
      id 14
      name LeftHand_dum2
      direction 1.000000 0.000000 0.000000
      length 3.937000
      axis 0.0 0.0 -90.0 xyz
   end
   begin
      id 15
      name LeftHandThumb1
      direction 0.000000 0.000000 1.000000
      length 3.937000
      axis 0.0 0.0 -90.0 xyz
      dof rx rz ry
   end
   begin
      id 16
      name RightShoulder
      direction -1.000000 0.000000 0.000000
      length 7.531907
      axis 0.0 0.0 90.0 xyz
      dof rx ry rz
   end
   begin
      id 17
      name RightArm
      direction -1.000000 0.000000 0.000000
      length 10.229199
      axis 0.0 0.0 90.0 xyz
      dof rx ry rz
   end
   begin
      id 18
      name RightForeArm
      direction -1.000000 0.000000 0.000000
      length 8.673495
      axis 0.0 0.0 90.0 xyz
      dof ry rz rx
   end
   begin
      id 19
      name RightHand
      direction 0.000000 0.000000 0.000000
      length 0.000000
      axis 0.0 0.0 90.0 xyz
      dof rx ry rz
   end
   begin
      id 20
      name RightHand_dum1
      direction 0.000000 0.000000 0.000000
      length 0.000000
      axis 0.0 0.0 90.0 xyz
   end
   begin
      id 21
      name RightHand_dum2
      direction -1.000000 0.000000 0.000000
      length 3.937000
      axis 0.0 0.0 90.0 xyz
   end
   begin
      id 22
      name RightHandThumb1
      direction 0.000000 0.000000 1.000000
      length 3.937000
      axis 0.0 0.0 90.0 xyz
      dof rx rz ry
   end
   begin
      id 23
      name LeftUpLeg
      direction 0.000000 -1.000000 0.000000
      length 16.263388
      axis 0.0 0.0 0.0 xyz
      dof rx ry rz
   end
   begin
      id 24
      name LeftLeg
      direction 0.000000 -1.000000 0.000000
      length 14.328163
      axis 0.0 0.0 0.0 xyz
      dof rx ry rz
   end
   begin
      id 25
      name LeftFoot
      direction 0.000000 -0.258819 0.965926
      length 5.031290
      axis 15.0 0.0 0.0 xyz
      dof rx ry rz
   end
   begin
      id 26
      name LeftToeBase
      direction 0.000000 0.000000 1.000000
      length 2.952750
      axis 0.0 0.0 0.0 xyz
      dof rx ry rz
   end
   begin
      id 27
      name RightUpLeg
      direction 0.000000 -1.000000 0.000000
      length 16.263388
      axis 0.0 0.0 0.0 xyz
      dof rx ry rz
   end
   begin
      id 28
      name RightLeg
      direction 0.000000 -1.000000 0.000000
      length 14.328163
      axis 0.0 0.0 0.0 xyz
      dof rx ry rz
   end
   begin
      id 29
      name RightFoot
      direction 0.000000 -0.258819 0.965926
      length 5.031290
      axis 15.0 0.0 0.0 xyz
      dof rx ry rz
   end
   begin
      id 30
      name RightToeBase
      direction 0.000000 0.000000 1.000000
      length 2.952750
      axis 0.0 0.0 0.0 xyz
      dof rx ry rz
   end
:hierarchy
   begin
      root Spine_dum LeftUpLeg_dum RightUpLeg_dum
      Spine_dum Spine
      LeftUpLeg_dum LeftUpLeg
      RightUpLeg_dum RightUpLeg
      Spine Spine_dum1 Spine_dum2 Spine_dum3
      Spine_dum1 Head
      Spine_dum2 LeftShoulder
      Spine_dum3 RightShoulder
      LeftShoulder LeftArm
      LeftArm LeftForeArm
      LeftForeArm LeftHand
      LeftHand LeftHand_dum1 LeftHand_dum2
      LeftHand_dum1 LeftHandThumb1
      RightShoulder RightArm
      RightArm RightForeArm
      RightForeArm RightHand
      RightHand RightHand_dum1 RightHand_dum2
      RightHand_dum1 RightHandThumb1
      LeftUpLeg LeftLeg
      LeftLeg LeftFoot
      LeftFoot LeftToeBase
      RightUpLeg RightLeg
      RightLeg RightFoot
      RightFoot RightToeBase
   end

# File created by Blade
# Date/Time:  Tue Apr 07 21:12:38 2015
# Frame Rate: 120.000 fps
#------------------------------------------------------
:FULLY-SPECIFIED
:DEGREES
327
root 36.090195 19.805105 6.290407 278.388328 -80.086749 -251.135275
Spine 70.708247 0.954498 -8.093657
Head -45.408007 -4.229798 7.660946
LeftShoulder 1.339212 12.374091 41.042477
LeftArm 98.532182 -43.555808 -67.036153
LeftForeArm -2.912387 -0.000000 19.989203
LeftHand 12.459925 -0.000000 14.183210
LeftHandThumb1 -26.253704 0.000000 33.147579
RightShoulder 5.528965 41.546141 -37.340731
RightArm 53.259892 13.076566 56.073395
RightForeArm -4.282584 0.000000 23.695528
RightHand 13.213505 -0.000000 -18.032619
RightHandThumb1 -24.326973 -0.000000 -32.862282
LeftUpLeg -86.315329 1.220389 -19.309851
LeftLeg 109.537078 -0.000000 -0.000000
LeftFoot -41.229601 -0.410838 -12.415541
LeftToeBase -17.589822 -0.000000 0.000000
RightUpLeg -84.467622 -4.490618 -5.718753
RightLeg 122.141773 -0.000000 -0.000000
RightFoot -29.320671 -9.864700 7.097232
RightToeBase -52.434153 -0.000000 0.000000
328
root 36.006016 19.704214 6.260264 280.890045 -79.933177 -253.566666
Spine 70.717093 0.782317 -8.162766
Head -45.492180 -4.248037 7.888861
LeftShoulder 1.388253 12.280264 41.131195
LeftArm 98.598559 -43.861730 -67.134786
LeftForeArm -2.952434 -0.000000 20.125406
LeftHand 12.579908 -0.000000 14.304447
LeftHandThumb1 -26.253704 0.000000 33.147579
RightShoulder 5.487437 41.517851 -37.396644
RightArm 53.169050 13.064467 56.058974
RightForeArm -3.532367 -0.000000 23.533945
RightHand 12.958430 -0.000000 -17.827911
RightHandThumb1 -24.326973 -0.000000 -32.862282
LeftUpLeg -86.445368 1.030104 -19.458659
LeftLeg 110.130773 -0.000000 -0.000000
LeftFoot -41.206668 -0.730960 -12.337127
LeftToeBase -17.789680 -0.000000 0.000000
RightUpLeg -84.576393 -4.546845 -5.897592
RightLeg 122.808562 -0.000000 -0.000000
RightFoot -29.274086 -10.150776 7.220561
RightToeBase -52.946291 -0.000000 0.000000
329
root 35.916874 19.609449 6.227542 283.309513 -79.763695 -255.927892
Spine 70.765507 0.612147 -8.265260
Head -45.588527 -4.213451 8.130564
LeftShoulder 1.395477 12.279792 41.228820
LeftArm 98.833931 -44.177785 -67.405189
LeftForeArm -3.034693 -0.000000 20.311916
LeftHand 12.631883 -0.000000 14.441179
LeftHandThumb1 -26.253704 0.000000 33.147579
RightShoulder 5.475104 41.568536 -37.390864
RightArm 53.070134 12.945903 55.989689
RightForeArm -2.909981 -0.000000 23.265859
RightHand 12.830907 -0.000000 -17.548250
RightHandThumb1 -24.326973 -0.000000 -32.862282
LeftUpLeg -86.552632 0.871746 -19.605033
LeftLeg 110.725178 -0.000000 -0.000000
LeftFoot -41.134515 -1.068530 -12.257544
LeftToeBase -18.134536 -0.000000 0.000000
RightUpLeg -84.633533 -4.595363 -6.070921
RightLeg 123.445247 -0.000000 -0.000000
RightFoot -29.257785 -10.446302 7.338529
RightToeBase -53.407802 -0.000000 0.000000
330
root 35.827175 19.512962 6.194603 285.770307 -79.561242 -258.288393
Spine 70.762027 0.412932 -8.387382
Head -45.665288 -4.194282 8.360990
LeftShoulder 1.419966 12.183300 41.329482
LeftArm 98.929505 -44.460627 -67.596629
LeftForeArm -3.037221 -0.000000 20.464847
LeftHand 12.867914 -0.000000 14.604801
LeftHandThumb1 -26.253704 0.000000 33.147579
RightShoulder 5.426550 41.523500 -37.437626
RightArm 53.005019 12.683352 55.907482
RightForeArm -2.282958 -0.000000 22.958721
RightHand 13.074290 -0.000000 -17.795202
RightHandThumb1 -24.326973 -0.000000 -32.862282
LeftUpLeg -86.707034 0.693577 -19.759306
LeftLeg 111.331422 -0.000000 -0.000000
LeftFoot -40.996891 -1.393706 -12.150869
LeftToeBase -18.688551 -0.000000 0.000000
RightUpLeg -84.737046 -4.656217 -6.275879
RightLeg 124.093969 -0.000000 -0.000000
RightFoot -29.219405 -10.685616 7.407781
RightToeBase -53.822882 -0.000000 0.000000
331
root 35.724986 19.427559 6.156294 287.974585 -79.383731 -260.496337
Spine 70.908860 0.241179 -8.527027
Head -45.760969 -4.135839 8.611815
LeftShoulder 1.428290 12.116662 41.424635
LeftArm 98.923887 -44.830034 -67.651248
LeftForeArm -3.152663 -0.000000 20.642652
LeftHand 13.062362 -0.000000 14.971756
LeftHandThumb1 -26.253704 0.000000 33.147579
RightShoulder 5.407220 41.560394 -37.486770
RightArm 52.873179 12.383663 55.935700
RightForeArm -2.023446 -0.000000 22.702216
RightHand 13.597207 0.000000 -18.575468
RightHandThumb1 -24.326973 -0.000000 -32.862282
LeftUpLeg -86.700091 0.589466 -19.837830
LeftLeg 111.897510 -0.000000 -0.000000
LeftFoot -40.900612 -1.776476 -12.021869
LeftToeBase -19.223724 -0.000000 0.000000
RightUpLeg -84.676558 -4.656023 -6.440383
RightLeg 124.696944 -0.000000 -0.000000
RightFoot -29.126651 -10.934667 7.449149
RightToeBase -54.333830 -0.000000 0.000000
332
root 35.627445 19.336391 6.120632 290.402946 -79.138886 -262.797723
Spine 70.889159 0.021724 -8.677876
Head -45.814622 -4.073649 8.832522
LeftShoulder 1.464255 12.047384 41.527672
LeftArm 99.070101 -45.125500 -67.922792
LeftForeArm -3.276123 -0.000000 20.901115
LeftHand 13.152706 -0.000000 15.147302
LeftHandThumb1 -26.253704 0.000000 33.147579
RightShoulder 5.317901 41.533209 -37.557796
RightArm 52.737328 12.006988 56.109002
RightForeArm -1.851479 -0.000000 22.521058
RightHand 14.123041 -0.000000 -19.603782
RightHandThumb1 -24.326973 -0.000000 -32.862282
LeftUpLeg -86.826290 0.392546 -19.959736
LeftLeg 112.468281 -0.000000 -0.000000
LeftFoot -40.770118 -2.178146 -11.936268
LeftToeBase -19.818667 -0.000000 0.000000
RightUpLeg -84.781298 -4.739568 -6.626079
RightLeg 125.336532 -0.000000 -0.000000
RightFoot -28.989150 -11.190158 7.470356
RightToeBase -54.818809 -0.000000 0.000000
333
root 35.526678 19.249188 6.080271 292.708266 -78.894064 -265.034873
Spine 70.965900 -0.176480 -8.839429
Head -45.894563 -3.965785 9.094850
LeftShoulder 1.462432 11.845643 41.675542
LeftArm 99.057580 -45.374609 -68.086645
LeftForeArm -3.429491 -0.000000 21.142452
LeftHand 13.176534 0.000000 15.522392
LeftHandThumb1 -26.253704 0.000000 33.147579
RightShoulder 5.210363 41.407995 -37.611981
RightArm 52.704833 11.560428 56.187692
RightForeArm -1.417969 -0.000000 22.237229
RightHand 14.921836 -0.000000 -21.223908
RightHandThumb1 -24.326973 -0.000000 -32.862282
LeftUpLeg -86.877912 0.264385 -20.078332
LeftLeg 113.023303 -0.000000 -0.000000
LeftFoot -40.668649 -2.610290 -11.799418
LeftToeBase -20.268206 -0.000000 0.000000
RightUpLeg -84.810611 -4.801022 -6.778719
RightLeg 125.956352 -0.000000 -0.000000
RightFoot -28.825163 -11.440820 7.504352
RightToeBase -55.442779 -0.000000 0.000000
334
root 35.422162 19.162063 6.038950 295.104407 -78.636258 -267.280722
Spine 70.931745 -0.401755 -8.977452
Head -45.910045 -3.890681 9.355243
LeftShoulder 1.499816 11.703309 41.788443
LeftArm 99.136375 -45.636844 -68.298231
LeftForeArm -3.547557 -0.000000 21.395620
LeftHand 13.319093 0.000000 15.703073
LeftHandThumb1 -26.253704 0.000000 33.147579
RightShoulder 5.080860 41.285447 -37.658707
RightArm 52.610681 11.067553 56.470503
RightForeArm -1.010906 -0.000000 22.002456
RightHand 16.364996 0.000000 -23.874324
RightHandThumb1 -24.326973 -0.000000 -32.862282
LeftUpLeg -87.000630 0.105788 -20.188163
LeftLeg 113.590195 -0.000000 -0.000000
LeftFoot -40.545174 -3.073136 -11.723944
LeftToeBase -20.794292 -0.000000 0.000000
RightUpLeg -84.876995 -4.848725 -6.939393
RightLeg 126.568717 -0.000000 -0.000000
RightFoot -28.715853 -11.685936 7.558292
RightToeBase -55.824589 -0.000000 0.000000
335
root 35.311610 19.077691 5.996693 297.333376 -78.360578 -269.395638
Spine 70.945498 -0.625974 -9.161931
Head -45.905875 -3.774160 9.640827
LeftShoulder 1.523035 11.549605 41.914081
LeftArm 99.162320 -45.898224 -68.500263
LeftForeArm -3.612019 0.000000 21.655229
LeftHand 13.419719 -0.000000 15.861283
LeftHandThumb1 -26.253704 0.000000 33.147579
RightShoulder 4.995143 41.125926 -37.681072
RightArm 52.478693 10.744921 57.027274
RightForeArm -1.171407 -0.000000 22.061044
RightHand 18.013496 0.000000 -27.187690
RightHandThumb1 -24.326973 -0.000000 -32.862282
LeftUpLeg -87.063986 -0.043830 -20.285459
LeftLeg 114.133702 -0.000000 -0.000000
LeftFoot -40.425004 -3.489651 -11.630543
LeftToeBase -21.426493 -0.000000 0.000000
RightUpLeg -84.879092 -4.908632 -7.093323
RightLeg 127.177168 -0.000000 -0.000000
RightFoot -28.625957 -11.929821 7.577980
RightToeBase -56.168429 -0.000000 0.000000
336
root 35.238872 19.006527 5.916905 299.077685 -78.557842 -270.508481
Spine 70.398308 -0.504168 -8.984561
Head -45.868583 -3.665408 9.926478
LeftShoulder 1.579804 11.419136 42.099014
LeftArm 99.208430 -46.205513 -68.706807
LeftForeArm -3.663967 0.000000 21.925974
LeftHand 13.334370 -0.000000 15.985904
LeftHandThumb1 -26.253704 0.000000 33.147579
RightShoulder 4.869076 40.996404 -37.699442
RightArm 52.266215 10.657338 58.048201
RightForeArm -2.042969 -0.000000 22.480926
RightHand 19.050315 -0.000000 -30.147474
RightHandThumb1 -24.326973 -0.000000 -32.862282
LeftUpLeg -87.846489 0.105904 -20.009695
LeftLeg 114.708212 -0.000000 -0.000000
LeftFoot -40.206104 -3.934813 -11.478037
LeftToeBase -22.059778 -0.000000 0.000000
RightUpLeg -84.976457 -2.901021 -7.844008
RightLeg 127.523250 -0.000000 -0.000000
RightFoot -29.752517 -11.851643 9.298191
RightToeBase -54.144128 -0.000000 0.000000
337
root 35.048454 18.887454 5.960155 302.109971 -77.097598 -274.350457
Spine 71.398830 -1.547397 -9.954511
Head -45.867288 -3.560567 10.152141
LeftShoulder 1.559262 11.412494 42.141222
LeftArm 99.510540 -46.387272 -69.091742
LeftForeArm -3.597467 0.000000 22.228943
LeftHand 13.334734 -0.000000 16.104932
LeftHandThumb1 -26.253704 0.000000 33.147579
RightShoulder 4.693084 40.838171 -37.679058
RightArm 52.085041 10.643857 59.335663
RightForeArm -2.969445 0.000000 23.170354
RightHand 20.026317 0.000000 -33.030167
RightHandThumb1 -24.326973 -0.000000 -32.862282
LeftUpLeg -86.526829 -0.804034 -21.012526
LeftLeg 115.257365 -0.000000 -0.000000
LeftFoot -40.198296 -4.241423 -11.502808
LeftToeBase -22.462017 -0.000000 0.000000
RightUpLeg -84.921953 -7.274700 -7.048780
RightLeg 128.722660 -0.000000 -0.000000
RightFoot -27.122497 -12.460990 6.032771
RightToeBase -59.587213 -0.000000 0.000000
338
root 34.958866 18.825917 5.869196 303.823779 -77.372350 -275.561893
Spine 71.012948 -1.382207 -9.750162
Head -45.778525 -3.344440 10.487111
LeftShoulder 1.604824 11.311529 42.399225
LeftArm 99.576920 -46.722232 -69.426132
LeftForeArm -3.463612 -0.000000 22.521556
LeftHand 13.355360 0.000000 16.190458
LeftHandThumb1 -26.253704 0.000000 33.147579
RightShoulder 4.654116 40.697377 -37.517536
RightArm 51.800676 10.870019 60.596958
RightForeArm -3.697781 -0.000000 24.071641
RightHand 20.961891 -0.000000 -35.290907
RightHandThumb1 -24.326973 -0.000000 -32.862282
LeftUpLeg -87.174450 -0.521538 -20.631591
LeftLeg 115.834722 -0.000000 -0.000000
LeftFoot -39.950358 -4.754574 -11.366929
LeftToeBase -23.108715 -0.000000 0.000000
RightUpLeg -84.756532 -5.136829 -7.650220
RightLeg 129.004843 -0.000000 -0.000000
RightFoot -28.282457 -12.522359 7.730525
RightToeBase -57.575714 -0.000000 0.000000
339
root 34.833297 18.739809 5.821149 306.212042 -77.005529 -277.894327
Spine 71.085702 -1.708650 -9.874857
Head -45.697198 -3.208362 10.771278
LeftShoulder 1.650657 11.222044 42.570070
LeftArm 99.660143 -47.000052 -69.607047
LeftForeArm -3.547856 -0.000000 22.718553
LeftHand 13.540438 -0.000000 16.278569
LeftHandThumb1 -26.253704 0.000000 33.147579
RightShoulder 4.482104 40.472093 -37.370931
RightArm 51.545788 11.051105 61.897424
RightForeArm -4.589900 -0.000000 25.112545
RightHand 21.652720 -0.000000 -37.219874
RightHandThumb1 -24.326973 -0.000000 -32.862282
LeftUpLeg -87.171773 -0.701167 -20.674491
LeftLeg 116.441086 -0.000000 -0.000000
LeftFoot -39.684378 -5.302930 -11.299390
LeftToeBase -23.733590 -0.000000 0.000000
RightUpLeg -84.641977 -5.229239 -7.789538
RightLeg 129.619115 -0.000000 -0.000000
RightFoot -28.104895 -12.713651 7.867056
RightToeBase -58.195395 -0.000000 0.000000
